<?xml version="1.0" encoding="utf-8"?>
<!-- Generator: Adobe Illustrator 16.0.0, SVG Export Plug-In . SVG Version: 6.00 Build 0)  -->
<!DOCTYPE svg PUBLIC "-//W3C//DTD SVG 1.1//EN" "http://www.w3.org/Graphics/SVG/1.1/DTD/svg11.dtd">
<svg version="1.1" id="Layer_1" xmlns="http://www.w3.org/2000/svg" xmlns:xlink="http://www.w3.org/1999/xlink" x="0px" y="0px"
	 width="140px" height="100px" viewBox="0 0 140 100" enable-background="new 0 0 140 100" xml:space="preserve">
<g>
	<rect x="17.575" y="84.728" fill="#D59F0F" width="105.503" height="1.168"/>
	<path fill="#003E7E" d="M125.832,53.438V40.145h-11.51C110.982,18.708,92.4,2.25,70.04,2.25c-22.355,0-40.941,16.458-44.279,37.895
		H14.17v13.293L3.428,57.8l0.266,1.345h132.616l0.262-1.345L125.832,53.438z M113.119,40.145h-9.277
		C100.73,16.357,83.527,6.96,74.68,3.669C94.281,5.749,110.031,20.858,113.119,40.145 M102.668,40.145h-9.551l-6.414-2.609
		c-1.67-18.732-7.402-28.479-12.289-32.723C83.045,8.056,99.594,17.202,102.668,40.145 M70.061,3.507
		c4.488,1.466,13.212,10.257,15.421,33.533l-15.481-6.288l-15.356,6.241C56.867,13.75,65.578,4.97,70.061,3.507 M53.424,37.485
		l-6.536,2.659h-9.356C40.589,17.325,56.968,8.156,65.648,4.865C60.781,9.134,55.095,18.864,53.424,37.485 M65.589,3.644
		c-8.833,3.271-26.11,12.654-29.232,36.5h-9.395C30.06,20.796,45.902,5.648,65.589,3.644 M7.265,57.75
		c1.013-0.416,62.527-25.407,62.737-25.492c0.215,0.087,61.723,25.076,62.737,25.492H7.265z"/>
	<path fill="#003E7E" d="M22.973,80.737c-2.193,0-4.088-2.383-5.375-4.417l-0.632,0.353l1.538,4.894
		c0.316-0.38,0.821-0.728,1.287-0.728c0.842,0,1.98,0.728,3.308,0.728c2.614,0,4.721-2.135,4.721-5.347
		c0-3.986-2.718-4.839-5.374-5.819c-1.477-0.525-3.415-1.404-3.415-3.585c0-1.881,1.221-3.338,2.804-3.338
		c2.106,0,3.709,2.207,4.741,4.188l0.611-0.348l-1.39-4.42c-0.252,0.353-0.676,0.479-1.032,0.479c-0.465,0-0.655-0.127-1.139-0.302
		c-0.633-0.277-1.012-0.428-1.685-0.428c-2.616,0-4.47,1.957-4.47,5.121c0,6.722,8.62,3.765,8.62,9.58
		C26.091,79.432,24.597,80.737,22.973,80.737"/>
	<path fill="#003E7E" d="M32.52,81.513c2.28,0,3.91-2.45,3.91-5.064c0-2.591-1.424-5.366-3.807-5.366
		c-2.42,0-3.895,2.736-3.895,5.389C28.728,78.98,30.323,81.513,32.52,81.513 M32.623,71.754c1.681,0,2.076,2.816,2.076,4.308
		c0,1.572-0.395,4.779-2.179,4.779c-1.665,0-2.059-3.37-2.059-4.821C30.461,74.447,30.89,71.754,32.623,71.754"/>
	<path fill="#003E7E" d="M37.032,72.143v0.49c1.044,0,1.062,0.39,1.113,1.468v3.633c0,0.939,0,1.923,0.431,2.717
		c0.411,0.758,1.147,1.063,1.851,1.063c1.063,0,1.991-0.816,2.711-1.674v1.45h2.677v-0.593c-1.185-0.162-1.185-0.288-1.185-2.204
		v-7.555l-2.625,1.205v0.49c1.048,0,1.064,0.39,1.115,1.468v4.88c-0.549,0.631-1.218,1.449-2.058,1.449
		c-1.049,0-1.407-1.081-1.407-2.163v-7.329L37.032,72.143z"/>
	<path fill="#003E7E" d="M50.171,80.43c-1.062,0-0.978-1.345-0.978-2.265v-6.187h2.404v-0.673h-2.404v-3.576h-0.566
		c-0.154,1.552-0.927,3.128-2.195,3.763v0.486h1.252v6.615c0,1.449,0.222,2.919,1.733,2.919c1.046,0,1.905-0.816,2.556-1.695
		l-0.293-0.409C51.252,79.92,50.84,80.43,50.171,80.43"/>
	<path fill="#003E7E" d="M55.079,78.492v-4.964c0.616-0.65,1.407-1.366,2.299-1.366c1.149,0,1.388,1.166,1.388,2.594v3.736
		c0,1.918,0,2.042-1.149,2.204v0.59h3.808v-0.59c-1.149-0.162-1.149-0.286-1.149-2.204v-3.736c0-2.123-0.361-3.674-2.162-3.674
		c-1.045,0-2.266,0.754-3.036,1.591v-7.045l-2.969,1.163v0.593c1.218,0.103,1.458,0.022,1.458,1.798v9.311
		c0,1.918,0,2.042-1.148,2.204v0.59h3.826v-0.59C55.079,80.534,55.079,80.41,55.079,78.492"/>
	<path fill="#003E7E" d="M79.898,63.752v-0.826h-5.48v0.826c0.613,0.076,1.813-0.101,1.813,1.232c0,0.777-0.314,1.979-0.506,2.785
		l-2.17,8.826l-2.529-10.733c-0.063-0.353-0.146-0.729-0.146-1.08c0-1.131,1.158-1.03,1.855-1.03v-0.826h-6.052v0.826
		c1.244-0.126,1.855,0.93,2.128,2.234l-2.613,10.609l-2.403-10.21c-0.124-0.425-0.336-1.228-0.336-1.704
		c0-0.954,0.969-0.876,1.559-0.93v-0.826h-6.028v0.826c2.107-0.148,2.447,1.483,2.91,3.491l3.329,14.046h0.675l3.373-13.595
		l3.29,13.595h0.674l3.418-13.32C77.201,65.862,77.559,63.626,79.898,63.752"/>
	<path fill="#003E7E" d="M80.963,71.082c-2.404,0-3.93,2.692-3.93,5.306c0,2.798,1.75,5.125,4.152,5.125c1.408,0,2.605-1,3.328-2.41
		l-0.293-0.328c-0.668,1.106-1.664,1.862-2.813,1.862c-2.145,0-2.643-2.963-2.643-4.961h5.816
		C84.582,73.264,83.105,71.082,80.963,71.082 M82.848,74.897h-3.996c0.035-1.388,0.633-3.144,2.094-3.144
		C82.436,71.754,82.951,73.489,82.848,74.897"/>
	<path fill="#003E7E" d="M87,73.142c0-0.836,0.688-1.388,1.355-1.388c1.389,0,2.42,1.489,3.26,2.773l0.412-0.26l-0.996-3.33
		c-0.207,0.288-0.445,0.469-0.771,0.469c-0.479,0-1.082-0.325-1.699-0.325c-1.355,0-2.693,1.165-2.693,2.897
		c0,3.696,5.334,2.555,5.334,5.187c0,0.96-0.719,1.675-1.51,1.675c-1.283,0-2.898-1.734-3.551-3.022l-0.375,0.225l1.061,3.471
		c0.295-0.284,0.639-0.47,0.998-0.47c0.223,0,0.426,0.104,0.633,0.186c0.396,0.142,0.703,0.284,1.135,0.284
		c1.373,0,2.795-1.324,2.795-3.084C92.387,74.693,87,75.631,87,73.142"/>
	<path fill="#003E7E" d="M96.643,80.43c-1.066,0-0.982-1.345-0.982-2.265v-6.187h2.404v-0.673H95.66v-3.576h-0.563
		c-0.154,1.552-0.926,3.128-2.195,3.763v0.486h1.252v6.615c0,1.449,0.223,2.919,1.732,2.919c1.047,0,1.904-0.816,2.557-1.695
		l-0.291-0.409C97.725,79.92,97.309,80.43,96.643,80.43"/>
	<path fill="#003E7E" d="M102.523,71.082c-2.4,0-3.926,2.692-3.926,5.306c0,2.798,1.75,5.125,4.15,5.125c1.406,0,2.607-1,3.328-2.41
		l-0.291-0.328c-0.67,1.106-1.664,1.862-2.813,1.862c-2.145,0-2.643-2.963-2.643-4.961h5.814
		C106.145,73.264,104.668,71.082,102.523,71.082 M104.412,74.897h-3.998c0.035-1.388,0.635-3.144,2.094-3.144
		C104.002,71.754,104.516,73.489,104.412,74.897"/>
	<path fill="#003E7E" d="M106.984,80.696v0.592h3.793v-0.592c-1.15-0.163-1.15-0.288-1.15-2.205v-4.246
		c0.291-0.572,0.979-1.513,1.58-1.513c0.549,0,0.77,0.529,1.371,0.529c0.568,0,0.924-0.509,0.924-1.141
		c0-0.715-0.494-1.184-1.063-1.184c-1.133,0-2.16,1.449-2.813,2.406v-2.406l-2.623,1.205v0.489c1.047,0,1.063,0.391,1.115,1.469
		v4.391C108.119,80.408,108.119,80.533,106.984,80.696"/>
	<path fill="#003E7E" d="M114.584,80.696v0.592h3.826v-0.592c-1.15-0.163-1.15-0.288-1.15-2.205V73.51
		c0.518-0.611,1.219-1.348,1.975-1.348c1.354,0,1.426,1.53,1.426,2.756v3.573c0,1.917,0,2.042-1.186,2.205v0.592h3.842v-0.592
		c-1.148-0.163-1.148-0.288-1.148-2.205v-3.962c0-0.958-0.018-1.897-0.586-2.652c-0.426-0.512-1.029-0.795-1.629-0.795
		c-0.959,0-2.041,0.755-2.693,1.591v-1.735l-2.625,1.205v0.489c1.049,0,1.064,0.391,1.117,1.469v4.391
		C115.752,80.408,115.752,80.533,114.584,80.696"/>
	<path fill="#003E7E" d="M19.194,92.815c-0.617-0.231-1.435-0.619-1.435-1.586c0-0.833,0.514-1.476,1.181-1.476
		c0.886,0,1.56,0.978,1.996,1.851l0.254-0.153l-0.584-1.95c-0.106,0.153-0.284,0.211-0.434,0.211c-0.196,0-0.275-0.058-0.479-0.134
		c-0.268-0.123-0.425-0.188-0.711-0.188c-1.098,0-1.88,0.863-1.88,2.261c0,2.971,3.629,1.664,3.629,4.234
		c0,0.919-0.63,1.495-1.313,1.495c-0.921,0-1.721-1.052-2.264-1.949l-0.263,0.155l0.645,2.163c0.135-0.166,0.347-0.322,0.542-0.322
		c0.354,0,0.835,0.322,1.394,0.322c1.098,0,1.987-0.945,1.987-2.362C21.459,93.626,20.314,93.248,19.194,92.815"/>
	<path fill="#003E7E" d="M23.461,89.51l-0.638,2.052l0.239,0.121c0.381-0.94,1.118-1.806,2.023-1.806
		c0.603,0,0.487,0.676,0.487,1.23v4.635c0,1.229-0.115,1.518-0.921,1.518v0.367h2.731V97.26c-0.817,0-0.931-0.289-0.931-1.518
		v-4.635c0-0.555-0.115-1.23,0.488-1.23c0.888,0.021,1.659,0.854,2.039,1.806l0.224-0.121L28.58,89.51H23.461z"/>
	<path fill="#003E7E" d="M35.924,96.941c-0.241-0.322-0.471-1.243-0.584-1.677l-1.616-6.031l-0.832,0.276l-1.615,6.054
		c-0.204,0.767-0.443,1.688-1.208,1.696v0.367h2.273V97.26c-0.366,0-0.835-0.076-0.835-0.641c0-0.321,0.268-1.188,0.354-1.509
		l0.115-0.422h2.265l0.363,1.365c0.052,0.165,0.151,0.53,0.151,0.707c0,0.577-0.561,0.464-0.862,0.499v0.367H36.5V97.26
		C36.278,97.225,36.073,97.151,35.924,96.941 M32.117,94.178l1.004-3.724l0.992,3.724H32.117z"/>
	<path fill="#003E7E" d="M38.052,89.51l-0.638,2.052l0.239,0.121c0.38-0.94,1.117-1.806,2.023-1.806c0.602,0,0.485,0.676,0.485,1.23
		v4.635c0,1.229-0.113,1.518-0.922,1.518v0.367h2.733V97.26c-0.816,0-0.933-0.289-0.933-1.518v-4.635c0-0.555-0.115-1.23,0.49-1.23
		c0.886,0.021,1.658,0.854,2.039,1.806l0.221-0.121l-0.621-2.052H38.052z"/>
	<path fill="#003E7E" d="M47.878,97.26c-0.806,0-0.905-0.222-0.905-1.119V93.58h0.367c0.698-0.056,1.46,0.012,1.451,1.431h0.257
		v-3.184H48.8c-0.06,1.199-0.629,1.387-1.46,1.387h-0.367v-2.072c0-1.087,0.054-1.265,0.958-1.265c1.305,0,1.597,0.399,2.377,1.697
		l0.222-0.166l-0.62-1.898h-4.64v0.367c0.7,0,0.826,0.301,0.826,1.521v4.343c0,1.229-0.126,1.519-0.826,1.519v0.367h4.756
		l0.654-2.107l-0.21-0.11C49.582,96.804,49.326,97.26,47.878,97.26"/>
	<path fill="#003E7E" d="M60.606,89.877c0.685,0,0.798,0.301,0.798,1.521v3.023c0,1.5-0.16,2.883-1.631,2.874
		c-1.391,0.009-1.623-1.323-1.623-2.784v-3.113c0-1.221,0.116-1.521,0.852-1.521V89.51h-2.509v0.367c0.664,0,0.78,0.301,0.78,1.521
		v3.743c0,1.72,0.895,2.608,2.244,2.608c1.578,0,2.298-0.963,2.298-2.928v-3.424c0-1.221,0.115-1.521,0.821-1.521V89.51h-2.029
		V89.877z"/>
	<path fill="#003E7E" d="M68.83,89.877c0.708,0,0.823,0.301,0.823,1.521v4.155l-3.431-6.044h-1.543v0.367
		c0.708,0,0.833,0.301,0.833,1.521v4.344c0,1.23-0.124,1.518-0.833,1.518v0.367h2.065V97.26c-0.709,0-0.825-0.287-0.825-1.518v-4.87
		l3.843,6.755h0.301v-6.229c0-1.221,0.125-1.521,0.824-1.521V89.51H68.83V89.877z"/>
	<path fill="#003E7E" d="M73.053,89.877c0.709,0,0.832,0.301,0.832,1.521v4.344c0,1.23-0.123,1.518-0.832,1.518v0.367h2.555V97.26
		c-0.721,0-0.844-0.287-0.844-1.518v-4.344c0-1.221,0.123-1.521,0.844-1.521V89.51h-2.555V89.877z"/>
	<path fill="#003E7E" d="M81.311,89.877c0.299,0.067,0.742-0.011,0.742,0.534c0,0.331-0.203,1.096-0.301,1.427l-1.115,3.983
		l-1.244-4.524c-0.07-0.242-0.211-0.699-0.211-0.965c0-0.477,0.441-0.455,0.734-0.455V89.51h-2.703v0.367
		c0.256,0,0.551-0.011,0.77,0.153c0.225,0.189,0.303,0.522,0.428,1.01l1.824,6.587h0.295l1.686-5.896
		c0.115-0.445,0.346-1.334,0.639-1.631c0.213-0.215,0.424-0.2,0.662-0.223V89.51h-2.205V89.877z"/>
	<path fill="#003E7E" d="M87.746,97.26c-0.805,0-0.902-0.222-0.902-1.119V93.58h0.365c0.701-0.056,1.463,0.012,1.453,1.431h0.258
		v-3.184h-0.248c-0.063,1.199-0.629,1.387-1.463,1.387h-0.365v-2.072c0-1.087,0.055-1.265,0.959-1.265
		c1.303,0,1.598,0.399,2.375,1.697l0.223-0.166l-0.621-1.898h-4.641v0.367c0.705,0,0.828,0.301,0.828,1.521v4.343
		c0,1.229-0.123,1.519-0.828,1.519v0.367h4.758l0.654-2.107l-0.211-0.11C89.451,96.804,89.193,97.26,87.746,97.26"/>
	<path fill="#003E7E" d="M97.076,96.219l-1.188-2.651c0.852-0.128,1.668-0.896,1.668-2.027c0-1.582-1.328-2.028-2.367-2.028h-2.607
		v0.364c0.869,0,0.824,0.644,0.824,1.541v4.324c0,1.231-0.123,1.519-0.824,1.519v0.367h2.527V97.26
		c-0.699,0-0.826-0.287-0.826-1.519v-2.074h0.631l1.82,3.96h1.469V97.26C97.488,97.294,97.408,96.929,97.076,96.219 M94.744,93.3
		h-0.461v-2.214c0-0.831,0.018-1.21,0.764-1.21c0.799,0,1.58,0.569,1.58,1.664C96.627,92.814,95.639,93.38,94.744,93.3"/>
	<path fill="#003E7E" d="M102.027,92.815c-0.619-0.231-1.436-0.619-1.436-1.586c0-0.833,0.516-1.476,1.178-1.476
		c0.887,0,1.563,0.978,1.998,1.851l0.256-0.153l-0.584-1.95c-0.107,0.153-0.283,0.211-0.436,0.211c-0.197,0-0.275-0.058-0.48-0.134
		c-0.266-0.123-0.424-0.188-0.709-0.188c-1.098,0-1.879,0.863-1.879,2.261c0,2.971,3.625,1.664,3.625,4.234
		c0,0.919-0.627,1.495-1.313,1.495c-0.92,0-1.721-1.052-2.26-1.949l-0.268,0.155l0.648,2.163c0.131-0.166,0.348-0.322,0.543-0.322
		c0.354,0,0.832,0.322,1.391,0.322c1.102,0,1.986-0.945,1.986-2.362C104.289,93.626,103.145,93.248,102.027,92.815"/>
	<path fill="#003E7E" d="M106.295,89.877c0.709,0,0.832,0.301,0.832,1.521v4.344c0,1.23-0.123,1.518-0.832,1.518v0.367h2.555V97.26
		c-0.721,0-0.844-0.287-0.844-1.518v-4.344c0-1.221,0.123-1.521,0.844-1.521V89.51h-2.555V89.877z"/>
	<path fill="#003E7E" d="M110.932,89.51l-0.639,2.052l0.24,0.121c0.381-0.94,1.119-1.806,2.021-1.806
		c0.604,0,0.488,0.676,0.488,1.23v4.635c0,1.229-0.115,1.518-0.922,1.518v0.367h2.73V97.26c-0.816,0-0.93-0.289-0.93-1.518v-4.635
		c0-0.555-0.117-1.23,0.488-1.23c0.885,0.021,1.658,0.854,2.039,1.806l0.221-0.121l-0.621-2.052H110.932z"/>
	<path fill="#003E7E" d="M122.506,91.229c0.295-0.677,0.543-1.407,1.27-1.353V89.51h-2.199v0.367
		c0.291,0.032,0.744-0.044,0.744,0.476c0,0.289-0.201,0.745-0.326,0.987l-1.004,2.341l-1.25-2.685
		c-0.072-0.165-0.258-0.551-0.258-0.73c0-0.433,0.541-0.389,0.771-0.389V89.51h-2.592v0.367c0.686-0.044,0.996,0.842,1.271,1.463
		l1.428,3.159v1.243c0,1.23-0.117,1.518-0.85,1.518v0.367h2.57V97.26c-0.729,0-0.846-0.287-0.846-1.518v-1.608L122.506,91.229z"/>
	<path fill="#003E7E" d="M46.841,52.088c0.937,0,1.269,0.129,1.269,1.373c0,1.472-0.366,2.517-1.667,2.517
		c-1.832,0-2.655-2.632-2.655-4.551c0-1.97,0.584-5.285,2.573-5.285c1.179,0,2.049,1.185,2.618,2.33l0.333-0.187l-0.765-2.688
		c-0.287,0.186-0.539,0.328-0.869,0.328c-0.413,0-0.906-0.255-1.546-0.255c-2.343,0-3.659,3.014-3.659,5.629
		c0,2.816,1.328,5.148,3.729,5.148c0.96,0,1.659-0.529,2.437-0.529c0.171,0,0.331,0.059,0.479,0.115v-2.115
		c0-1.046,0-1.787,0.986-1.831v-0.473h-3.26V52.088z"/>
	<path fill="#003E7E" d="M55.213,55.818c-1.042,0-1.167-0.286-1.167-1.444v-3.302h0.468c0.903-0.071,1.887,0.016,1.876,1.845h0.332
		v-4.104h-0.321c-0.082,1.544-0.813,1.788-1.887,1.788h-0.468v-2.674c0-1.4,0.068-1.63,1.235-1.63c1.68,0,2.058,0.516,3.063,2.187
		l0.289-0.215l-0.803-2.444h-5.98v0.472c0.904,0,1.063,0.389,1.063,1.958v5.604c0,1.586-0.16,1.959-1.063,1.959v0.472h6.128
		l0.849-2.714l-0.275-0.144C57.408,55.232,57.077,55.818,55.213,55.818"/>
	<path fill="#003E7E" d="M64.454,45.67c-2.356,0-3.729,2.672-3.729,5.39c0,2.729,1.314,5.388,3.694,5.388
		c2.366,0,3.741-2.528,3.741-5.303C68.16,48.415,66.843,45.67,64.454,45.67 M64.418,55.977c-1.876,0-2.379-3.204-2.379-4.977
		c0-1.842,0.516-4.859,2.415-4.859c1.898,0,2.389,3.033,2.389,4.889C66.843,52.93,66.386,55.977,64.418,55.977"/>
	<path fill="#003E7E" d="M69.945,46.299c1.122,0,1.063,0.829,1.063,1.985v5.576c0,1.586-0.162,1.959-1.063,1.959v0.472h3.258v-0.472
		c-0.9,0-1.063-0.373-1.063-1.959v-2.671h0.811l2.346,5.102h1.898v-0.472c-0.926,0.044-1.029-0.429-1.453-1.344l-1.531-3.415
		c1.098-0.174,2.15-1.158,2.15-2.616c0-2.044-1.713-2.617-3.055-2.617h-3.362V46.299z M72.141,47.855
		c0-1.071,0.023-1.556,0.984-1.556c1.029,0,2.033,0.727,2.033,2.145c0,1.642-1.268,2.374-2.424,2.273h-0.594V47.855z"/>
	<path fill="#003E7E" d="M82.238,56.447c0.963,0,1.658-0.528,2.438-0.528c0.17,0,0.332,0.058,0.48,0.115v-2.115
		c0-1.046,0-1.787,0.982-1.831v-0.475h-3.26v0.475c0.938,0,1.268,0.13,1.268,1.373c0,1.472-0.361,2.516-1.666,2.516
		c-1.832,0-2.654-2.631-2.654-4.548c0-1.973,0.582-5.288,2.574-5.288c1.176,0,2.047,1.186,2.619,2.333l0.332-0.188l-0.768-2.688
		c-0.287,0.185-0.537,0.327-0.869,0.327c-0.41,0-0.902-0.254-1.543-0.254c-2.346,0-3.66,3.014-3.66,5.63
		C78.512,54.116,79.838,56.447,82.238,56.447"/>
	<path fill="#003E7E" d="M91.172,55.818c-0.928,0-1.086-0.373-1.086-1.959v-5.604c0-1.569,0.158-1.958,1.086-1.958v-0.472h-3.295
		v0.472c0.916,0,1.074,0.389,1.074,1.958v5.604c0,1.586-0.158,1.959-1.074,1.959v0.472h3.295V55.818z"/>
	<path fill="#003E7E" d="M95.164,55.818c-0.471,0-1.076-0.102-1.076-0.829c0-0.413,0.344-1.528,0.457-1.945l0.148-0.542h2.916
		l0.469,1.758c0.066,0.215,0.193,0.686,0.193,0.916c0,0.743-0.719,0.599-1.107,0.643v0.473h3.363v-0.473
		c-0.285-0.044-0.547-0.143-0.742-0.415c-0.311-0.414-0.607-1.601-0.758-2.156l-2.082-7.778l-1.074,0.357l-2.08,7.803
		c-0.262,0.987-0.574,2.175-1.555,2.189v0.473h2.928V55.818z M96.17,47.042l1.281,4.806h-2.574L96.17,47.042z"/>
	<path fill="#003E7E" d="M124.715,96.089c0-0.235-0.191-0.425-0.424-0.425h-0.604v1.426h0.27v-0.578h0.191l0.27,0.578h0.297
		l-0.283-0.604C124.596,96.429,124.715,96.271,124.715,96.089 M124.291,96.242h-0.334v-0.31h0.334c0.084,0,0.152,0.069,0.152,0.156
		C124.443,96.175,124.375,96.242,124.291,96.242"/>
	<path fill="#003E7E" d="M124.203,95.129c-0.693,0-1.252,0.558-1.252,1.248c0,0.689,0.559,1.25,1.252,1.25
		c0.688,0,1.246-0.561,1.246-1.25C125.449,95.687,124.891,95.129,124.203,95.129 M124.203,97.36c-0.545,0-0.984-0.441-0.984-0.983
		s0.439-0.982,0.984-0.982c0.541,0,0.979,0.44,0.979,0.982S124.744,97.36,124.203,97.36"/>
</g>
</svg>
